<svg width="602" height="602" viewBox="0 0 602 602" fill="none" xmlns="http://www.w3.org/2000/svg">
<g id="Frame 1" clip-path="url(#clip0)">
<rect width="602" height="602" fill="url(#paint0_linear)"/>
<g id="logo-heart" clip-path="url(#clip1)">
<g id="Group">
<path id="Vector" d="M45.0182 178.191C44.8525 176.753 44.6863 175.31 44.5 173.864L44.5 173.861L44.5 173.826L44.5 173.791L44.5 173.756L44.5 173.721L44.5 173.686L44.5 173.651L44.5 173.617L44.5 173.582L44.5 173.547L44.5 173.512L44.5 173.477L44.5 173.442L44.5 173.407L44.5 173.372L44.5 173.337L44.5 173.302L44.5 173.267L44.5 173.232L44.5 173.197L44.5 173.162L44.5 173.127L44.5 173.092L44.5 173.057L44.5 173.022L44.5 172.987L44.5 172.952L44.5 172.917L44.5 172.882L44.5 172.847L44.5 172.812L44.5 172.777L44.5 172.742L44.5 172.707L44.5 172.672L44.5 172.637L44.5 172.602L44.5 172.567L44.5 172.532L44.5 172.497L44.5 172.462L44.5 172.427L44.5 172.392L44.5 172.357L44.5 172.322L44.5 172.287L44.5 172.252L44.5 172.217L44.5 172.182L44.5 172.147L44.5 172.112L44.5 172.077L44.5 172.042L44.5 172.007L44.5 171.972L44.5 171.937L44.5 171.902L44.5 171.868L44.5 171.833L44.5 171.798L44.5 171.763L44.5 171.728L44.5 171.693L44.5 171.658L44.5 171.623L44.5 171.588L44.5 171.553L44.5 171.518L44.5 171.483L44.5 171.448L44.5 171.413L44.5 171.378L44.5 171.343L44.5 171.308L44.5 171.273L44.5 171.238L44.5 171.203L44.5 171.168L44.5 171.133L44.5 171.098L44.5 171.063L44.5 171.028L44.5 170.993L44.5 170.958L44.5 170.923L44.5 170.888L44.5 170.853L44.5 170.818L44.5 170.783L44.5 170.748L44.5 170.713L44.5 170.678L44.5 170.643L44.5 170.608L44.5 170.573L44.5 170.538L44.5 170.503L44.5 170.468L44.5 170.433L44.5 170.398L44.5 170.363L44.5 170.328L44.5 170.293L44.5 170.258L44.5 170.223L44.5 170.188L44.5 170.153L44.5 170.119L44.5 170.084L44.5 170.049L44.5 170.014L44.5 169.979L44.5 169.944L44.5 169.909L44.5 169.874L44.5 169.839L44.5 169.804L44.5 169.769L44.5 169.734L44.5 169.699L44.5 169.664L44.5 169.629L44.5 169.594L44.5 169.559L44.5 169.524L44.5 169.489L44.5 169.454L44.5 169.419L44.5 169.384L44.5 169.349L44.5 169.314L44.5 169.279L44.5 169.244L44.5 169.209L44.5 169.174L44.5 169.139L44.5 169.104L44.5 169.069L44.5 169.034L44.5 168.999L44.5 168.964L44.5 168.929L44.5 168.894L44.5 168.859L44.5 168.824L44.5 168.789L44.5 168.754L44.5 168.719L44.5 168.684L44.5 168.649L44.5 168.614L44.5 168.579L44.5 168.544L44.5 168.509L44.5 168.474L44.5 168.439L44.5 168.404L44.5 168.37L44.5 168.335L44.5 168.3L44.5 168.265L44.5 168.23L44.5 168.195L44.5 168.16L44.5 168.125L44.5 168.09L44.5 168.055L44.5 168.02L44.5 167.985L44.5 167.95L44.5 167.915L44.5 167.88L44.5 167.845L44.5 167.81L44.5 167.775L44.5 167.74L44.5 167.705L44.5 167.67L44.5 167.635L44.5 167.6L44.5 167.565L44.5 167.53L44.5 167.495L44.5 167.46L44.5 167.425L44.5 167.39L44.5 167.355L44.5 167.32L44.5 167.285L44.5 167.25L44.5 167.215L44.5 167.18L44.5 167.145L44.5 167.11L44.5 167.075L44.5 167.04L44.5 167.005L44.5 166.97L44.5 166.935L44.5 166.9L44.5 166.865L44.5 166.83L44.5 166.795L44.5 166.76L44.5 166.725L44.5 166.69L44.5 166.655L44.5 166.621L44.5 166.586L44.5 166.551L44.5 166.516L44.5 166.481L44.5 166.446L44.5 166.411L44.5 166.376L44.5 166.341L44.5 166.306L44.5 166.271L44.5 166.236L44.5 166.201L44.5 166.166L44.5 166.131L44.5 166.096L44.5 166.061L44.5 166.026L44.5 165.991L44.5 165.956L44.5 165.921L44.5 165.886L44.5 165.851L44.5 165.816L44.5 165.781L44.5 165.746L44.5 165.711L44.5 165.676L44.5 165.641L44.5 165.606L44.5 165.571L44.5 165.536L44.5 165.501L44.5 165.466L44.5 165.431L44.5 165.396L44.5 165.361L44.5 165.326L44.5 165.291L44.5 165.256L44.5 165.221L44.5 165.186L44.5 165.151L44.5 165.116L44.5 165.081L44.5 165.046L44.5 165.011L44.5 164.976L44.5 164.941L44.5 164.906L44.5 164.872L44.5 164.837L44.5 164.802L44.5 164.767L44.5 164.732L44.5 164.697L44.5 164.662L44.5 164.627L44.5 164.592L44.5 164.557L44.5 164.522L44.5 164.487L44.5 164.452L44.5 164.417L44.5 164.382L44.5 164.347L44.5 164.312L44.5 164.277L44.5 164.242L44.5 164.207L44.5 164.172L44.5 164.137L44.5 164.102L44.5 164.067L44.5 164.032L44.5 163.997L44.5 163.962L44.5 163.927L44.5 163.892L44.5 163.857L44.5 163.822L44.5 163.787L44.5 163.752L44.5 163.717L44.5 163.682L44.5 163.647L44.5 163.612L44.5 163.577L44.5 163.542L44.5 163.507L44.5 163.472L44.5 163.437L44.5 163.402L44.5 163.367L44.5 163.332L44.5 163.297L44.5 163.262L44.5 163.227L44.5 163.192L44.5 163.157L44.5 163.123L44.5 163.088L44.5 163.053L44.5 163.018L44.5 162.983L44.5 162.948L44.5 162.913L44.5 162.878L44.5 162.843L44.5 162.808L44.5 162.773L44.5 162.738L44.5 162.703L44.5 162.668L44.5 162.633L44.5 162.598L44.5 162.563L44.5 162.528L44.5 162.493L44.5 162.458L44.5 162.423L44.5 162.388L44.5 162.353L44.5 162.318L44.5 162.283L44.5 162.248L44.5 162.213L44.5 162.178L44.5 162.143L44.5 162.108L44.5 162.073L44.5 162.038L44.5 162.003L44.5 161.968L44.5 161.933L44.5 161.898L44.5 161.863L44.5 161.828L44.5 161.793L44.5 161.758L44.5 161.723L44.5 161.688L44.5 161.653L44.5 161.618L44.5 161.583L44.5 161.548L44.5 161.513L44.5 161.478L44.5 161.443L44.5 161.408L44.5 161.374L44.5 161.339L44.5 161.304L44.5 161.269L44.5 161.234L44.5 161.199L44.5 161.164L44.5 161.129L44.5 161.094L44.5 161.059L44.5 161.024L44.5 160.989L44.5 160.954L44.5 160.919L44.5 160.884L44.5 160.849L44.5 160.814L44.5 160.779L44.5 160.744L44.5 160.709L44.5 160.674L44.5 160.639L44.5 160.604L44.5 160.569L44.5 160.534L44.5 160.499L44.5 160.464L44.5 160.429L44.5 160.394L44.5 160.359L44.5 160.324L44.5 160.289L44.5 160.254L44.5 160.219L44.5 160.184L44.5 160.149L44.5 160.114L44.5 160.079L44.5 160.044L44.5 160.009L44.5 159.974L44.5 159.939L44.5 159.904L44.5 159.869L44.5 159.834L44.5 159.799L44.5 159.764L44.5 159.729L44.5 159.694L44.5 159.659L44.5 159.625L44.5 159.59L44.5 159.555L44.5 159.52L44.5 159.485L44.5 159.45L44.5 159.415L44.5 159.38L44.5 159.345L44.5 159.31L44.5 159.275L44.5 159.24L44.5 159.205L44.5 159.17L44.5 159.135L44.5 159.1L44.5 159.065L44.5 159.03L44.5 158.995L44.5 158.96L44.5 158.925L44.5 158.89L44.5 158.855L44.5 158.82L44.5 158.785L44.5 158.75L44.5 158.715L44.5 158.68L44.5 158.645L44.5 158.61L44.5 158.575L44.5 158.54L44.5 158.505L44.5 158.47L44.5 158.435L44.5 158.4L44.5 158.365L44.5 158.33L44.5 158.295L44.5 158.26L44.5 158.225L44.5 158.19L44.5 158.155L44.5 158.12L44.5 158.085L44.5 158.05L44.5 158.015L44.5 157.98L44.5 157.945L44.5 157.91L44.5 157.876L44.5 157.841L44.5 157.806L44.5 157.771L44.5 157.736L44.5 157.701L44.5 157.666L44.5 157.631L44.5 157.596L44.5 157.561L44.5 157.526L44.5 157.491L44.5 157.456L44.5 157.421L44.5 157.386L44.5 157.351L44.5 157.316L44.5 157.281L44.5 157.246L44.5 157.211L44.5 157.176L44.5 157.141L44.5 157.106L44.5 157.071L44.5 157.036L44.5 157.001L44.5 156.966L44.5 156.931L44.5 156.896L44.5 156.861L44.5 156.826L44.5 156.791L44.5 156.756L44.5 156.721L44.5 156.686L44.5 156.651L44.5 156.616L44.5 156.581L44.5 156.546L44.5 156.511L44.5 156.476L44.5 156.441L44.5 156.406L44.5 156.371L44.5 156.336L44.5 156.301L44.5 156.266L44.5 156.231L44.5 156.196L44.5 156.161L44.5 156.127L44.5 156.092L44.5 156.057L44.5 156.034C44.8357 154.281 45.1506 152.529 45.4648 150.781C46.1582 146.922 46.8486 143.079 47.7544 139.279C51.1462 125.05 58.4517 112.785 67.7826 101.688C79.9301 87.2426 95.7559 78.0611 113.402 72.1172L113.244 71.6494L113.402 72.1172C119.235 70.1522 125.747 69.8243 132.104 69.5042C132.32 69.4933 132.536 69.4825 132.751 69.4716C146.51 68.7742 160.156 69.2667 173.194 74.2542C173.864 74.5105 174.534 74.7652 175.204 75.0198C185.469 78.9222 195.601 82.7738 203.005 91.4095L203.387 91.8551L203.767 91.407C216.107 76.8211 230.326 64.9418 247.488 57.5708C254.523 54.5491 262.296 53.1567 270.064 51.7652C271.937 51.4296 273.811 51.0941 275.674 50.7357C285.516 48.8419 295.319 49.9081 304.871 53.0536C316.794 56.9803 327.412 62.3187 336.244 71.9807C347.462 84.2521 357.084 97.3153 363.836 112.342C370.633 127.467 373.039 143.414 371.788 160.106C369.482 190.859 356.551 217.662 341.581 243.87C331.86 260.886 319.44 275.953 306.78 290.846C295.859 303.694 284.747 316.379 273.634 329.067C270.164 333.028 266.694 336.99 263.229 340.957C262.592 341.686 261.971 342.426 261.352 343.163C259.258 345.657 257.196 348.113 254.689 349.965C249.565 353.751 243.517 353.405 237.828 351.004C221.806 344.241 205.797 337.441 190.03 330.133C164.674 318.381 140.601 304.275 118.438 287.295C97.8616 271.531 77.9625 254.949 64.4117 232.302C56.04 218.31 49.2387 203.7 46.3059 187.574C45.7414 184.47 45.3808 181.34 45.0182 178.191ZM172.987 310.221C173.358 297.761 174.511 285.954 177.535 274.389C178.031 276.662 178.098 278.916 177.954 281.174C177.837 283.019 177.731 284.863 177.626 286.706C177.259 293.106 176.894 299.488 176.028 305.802C175.652 308.542 175.995 310.623 177.081 312.28C178.16 313.925 179.922 315.076 182.216 316.066C202.005 324.612 221.758 333.242 241.389 342.135C243.474 343.079 245.209 343.41 246.819 343.026C248.424 342.643 249.807 341.57 251.238 339.926C255.231 335.334 259.34 330.808 263.454 326.277C268.717 320.479 273.988 314.673 279.031 308.714C279.996 307.574 280.962 306.433 281.928 305.292C293.527 291.597 305.151 277.872 315.954 263.539C337.613 234.803 354.623 203.682 360.648 167.497C363.303 151.552 362.171 135.888 356.595 120.761C351.071 105.771 342.213 92.8472 331.718 80.7828C323.876 71.7668 314.99 65.3768 303.67 61.5868L303.511 62.0609L303.67 61.5868C292.836 57.9603 281.993 58.0067 271.13 59.7342L271.209 60.228L271.13 59.7342C261.618 61.2473 252.264 63.51 243.719 68.8233C231.368 76.5035 219.822 85.0591 210.034 95.9287L210.405 96.2633L210.034 95.9287C208.986 97.0923 208.13 97.9429 207.357 98.5191C206.59 99.091 205.931 99.3729 205.273 99.4341C204.613 99.4955 203.893 99.3403 202.996 98.9271C202.095 98.5118 201.047 97.8517 199.739 96.9399C198.405 96.0108 197.112 95.0276 195.809 94.0374C195.068 93.4746 194.325 92.9094 193.569 92.3506C191.498 90.8193 189.366 89.3578 187.062 88.2171C175.993 82.7369 164.521 77.6142 151.788 77.2598C149.735 77.2027 147.659 77.1079 145.57 77.0125C137.469 76.6426 129.189 76.2646 121.482 78.0492L121.593 78.5319L121.482 78.0492C94.981 84.1863 75.34 100.045 62.4299 124.192C55.4118 137.318 53.4558 151.339 53.8192 165.8C53.946 170.843 54.3894 175.889 54.8311 180.917C55.0298 183.179 55.2282 185.438 55.3974 187.69L56.3648 187.827C58.3215 182.549 59.9698 177.211 61.6062 171.912C62.1144 170.266 62.6214 168.624 63.1361 166.989C65.1515 160.587 67.2889 154.274 70.0888 148.177C70.2693 149.772 70.1744 151.298 69.7898 152.74C67.8505 160.009 65.8689 167.262 63.8868 174.516C62.3314 180.208 60.7758 185.902 59.24 191.606L59.7228 191.736L59.24 191.606C59.1475 191.95 59.0346 192.326 58.9175 192.715C58.7259 193.353 58.523 194.029 58.3796 194.663C58.144 195.705 58.0213 196.805 58.3414 197.783L58.8166 197.628L58.3414 197.783C59.8077 202.259 61.5685 206.646 63.3224 211.015C63.9814 212.657 64.6394 214.296 65.2804 215.937L66.2461 215.754C66.2447 208.519 68.728 196.894 71.9629 186.792C73.5785 181.747 75.3742 177.105 77.1274 173.602C78.0045 171.849 78.8642 170.395 79.6773 169.321C80.2724 168.535 80.8165 167.988 81.2962 167.664C81.3213 167.811 81.3196 167.891 81.3065 167.94L81.3064 167.941C77.2111 183.544 73.1147 199.146 68.9335 214.725L68.9335 214.725C68.8171 215.159 68.5592 215.581 68.1771 216.103C68.0651 216.256 67.9411 216.419 67.8094 216.593C67.5095 216.988 67.1697 217.435 66.8398 217.935L66.6706 218.192L66.8232 218.459C68.3532 221.135 70.0694 224.136 71.8979 227.334L73.9239 230.876L74.5513 231.973L74.8443 230.744C78.8879 213.782 83.4977 197.684 89.313 181.981C89.4837 182.024 89.6545 182.066 89.8252 182.109L89.918 182.132C90.1128 182.18 90.3076 182.229 90.5024 182.277C90.3234 183.284 90.1619 184.287 90.0011 185.285C89.601 187.77 89.2056 190.225 88.5578 192.631C86.8642 198.919 85.1121 205.192 83.3585 211.467L83.274 211.77C81.5486 217.944 79.8226 224.12 78.1512 230.311L78.6339 230.442L78.1511 230.311C77.9012 231.238 77.6292 232.371 77.5319 233.453C77.4365 234.513 77.4975 235.631 78.0194 236.448L78.3825 236.216L78.0194 236.448C79.9241 239.431 82.1878 242.2 84.4728 244.996C85.3618 246.083 86.2541 247.175 87.1297 248.284L87.7917 249.123L88.0115 248.078C88.4342 246.066 88.8189 244.111 89.1955 242.197C90.0109 238.052 90.7877 234.104 91.827 230.215C94.0717 221.815 96.6325 213.493 99.2463 205.188L98.7694 205.038L99.2463 205.188C99.534 204.274 100.001 203.4 100.536 202.513C100.725 202.198 100.928 201.875 101.132 201.549C101.412 201.103 101.697 200.648 101.962 200.194C102.072 200.238 102.181 200.283 102.29 200.327C102.419 200.38 102.548 200.433 102.678 200.485C102.653 200.761 102.632 201.04 102.612 201.314C102.596 201.537 102.58 201.757 102.562 201.968C102.51 202.575 102.44 203.153 102.3 203.704L102.3 203.704C100.752 209.791 99.1863 215.866 97.62 221.941C96.2076 227.419 94.795 232.898 93.396 238.388C92.5652 241.647 91.9471 244.166 91.6315 246.22C91.3154 248.277 91.2953 249.912 91.6899 251.395C92.0861 252.885 92.8875 254.174 94.1293 255.563C95.3639 256.944 97.0588 258.451 99.2643 260.367L99.5922 259.99L99.2643 260.367C100.356 261.315 101.53 262.187 102.717 263.069C103.266 263.477 103.818 263.886 104.365 264.306L105.061 264.84L105.166 263.97C106.54 252.621 108.84 240.807 111.328 231.535C112.572 226.898 113.861 222.908 115.099 219.934C115.718 218.447 116.32 217.226 116.892 216.309C117.13 215.927 117.357 215.607 117.571 215.347C117.545 215.756 117.522 216.157 117.5 216.55C117.477 216.966 117.454 217.372 117.428 217.768C117.352 218.923 117.247 220.009 117.024 221.061C115.099 230.131 113.13 239.191 111.16 248.252C110.012 253.53 108.864 258.809 107.726 264.091C107.715 264.141 107.703 264.194 107.691 264.25C107.605 264.641 107.496 265.14 107.447 265.594C107.419 265.854 107.408 266.127 107.44 266.374C107.471 266.611 107.551 266.905 107.779 267.118L107.78 267.119C110.437 269.599 113.189 271.983 115.944 274.369C116.782 275.095 117.621 275.822 118.457 276.551L119.134 277.142L119.279 276.255C121.741 261.183 124.606 246.839 128.729 232.788C129.475 235.351 129.511 237.879 129.236 240.41C129.072 241.916 128.8 243.417 128.504 244.928C128.433 245.29 128.36 245.653 128.288 246.017C128.059 247.165 127.828 248.321 127.638 249.473C126.938 253.709 126.112 257.926 125.274 262.149C125.204 262.502 125.134 262.855 125.064 263.208C124.296 267.077 123.527 270.952 122.847 274.844C122.693 275.723 122.614 276.848 122.704 277.876C122.749 278.389 122.839 278.895 122.991 279.338C123.143 279.777 123.369 280.194 123.714 280.486L124.031 280.111L123.714 280.486C126.281 282.657 129.12 284.526 132.058 286.461C133.19 287.206 134.337 287.962 135.49 288.748L136.125 289.181L136.263 288.425C137.089 283.912 137.775 279.434 138.455 275C140.133 264.055 141.77 253.378 145.352 243.115L145.85 243.146L146.263 243.171C146.27 243.514 146.285 243.861 146.299 244.201C146.311 244.481 146.323 244.756 146.33 245.022C146.352 245.781 146.343 246.508 146.231 247.208C145.307 252.992 144.362 258.776 143.417 264.561C142.15 272.315 140.883 280.071 139.666 287.83L140.16 287.908L139.666 287.83C139.565 288.476 139.582 289.297 139.724 290.035C139.796 290.406 139.902 290.772 140.051 291.092C140.198 291.407 140.401 291.712 140.686 291.92L140.687 291.92C143.787 294.177 147.016 296.265 150.298 298.387C151.439 299.124 152.586 299.866 153.736 300.62L154.365 301.032L154.501 300.293C157.238 285.496 159.867 271.283 162.495 257.075C162.637 257.093 162.779 257.111 162.921 257.13C163.096 257.152 163.272 257.175 163.447 257.197C164.684 264.866 163.561 272.331 161.981 279.863C161.636 281.509 161.269 283.161 160.9 284.818C159.56 290.836 158.203 296.934 157.83 303.173L157.811 303.504L158.108 303.651C162.57 305.858 167.203 308.15 172.265 310.654L172.964 311L172.987 310.221Z" fill="black" stroke="black"/>
<path id="Vector_2" d="M280.409 169.046C272.043 169.441 264.413 163.692 262.492 154.639C260.975 147.493 262.962 139.814 273.457 134.865C285.595 129.142 301.499 136.523 303.842 149.096C304.75 153.968 302.674 157.986 299.465 161.031C294.431 165.808 288.51 169.258 280.409 169.046V169.046Z" fill="black"/>
<path id="Vector_3" d="M145.594 159.244C153.083 159.582 159.197 162.308 163.853 168.535C170.109 176.9 167.257 190.965 153.928 194.014C145.361 195.975 137.301 193.844 131.312 186.824C126.877 181.625 125.693 175.608 128.235 169.152C130.951 162.253 137.034 160.344 143.568 159.259C144.226 159.149 144.918 159.244 145.594 159.244V159.244Z" fill="black"/>
<path id="Vector_4" d="M214.563 184.743C201.058 184.485 189.89 174.808 189.698 163.051C189.647 159.971 189.995 157.148 193.685 156.627C196.945 156.167 198.476 158.378 199.464 161.1C201.201 165.884 203.547 170.134 208.572 172.297C214.086 174.67 218.842 173.4 223.464 169.916C228.036 166.469 228.138 161.799 226.911 157.137C225.894 153.269 227.195 150.991 230.399 149.672C233.51 148.392 237.009 150.555 238.325 154.175C243.591 168.667 234.154 179.502 221.675 183.559C219.415 184.294 216.939 184.365 214.563 184.743V184.743Z" fill="black"/>
<path id="Vector_5" d="M191.14 318.379C190.504 316.871 189.211 315.306 189.336 313.863C190.232 303.549 191.405 293.257 192.532 282.963C192.602 282.32 193.031 281.716 193.293 281.095C193.928 281.36 194.563 281.626 195.198 281.89C194.432 293.864 193.667 305.837 192.901 317.81C192.314 318 191.727 318.19 191.14 318.379V318.379Z" fill="black"/>
<path id="Vector_6" d="M206.417 320.388C202.853 316.186 202.727 309.4 205.648 292.709C207.945 294.871 208.606 314.979 206.417 320.388Z" fill="black"/>
<path id="Vector_7" d="M220.173 301.588C219.838 306.411 219.503 311.235 219.148 316.346C215.644 313.928 215.781 307.637 219.007 301.441C219.396 301.49 219.784 301.539 220.173 301.588V301.588Z" fill="black"/>
<path id="Vector_8" d="M232.295 315.27C229.238 311.398 229.547 308.146 233.063 304.47C232.788 308.33 232.579 311.277 232.295 315.27Z" fill="black"/>
</g>
</g>
<g id="logo-yarn" clip-path="url(#clip2)">
<g id="Group_2">
<g id="Group_3">
<path id="Vector_9" d="M502.668 248.239C500.401 238.641 495.94 229.414 489.18 221.358C466.026 193.764 424.741 190.152 397.147 213.306C379.441 228.164 371.028 250.898 374.597 273.504L251.621 376.693C231.503 371.715 209.839 376.596 193.827 390.032C166.234 413.186 162.622 454.47 185.776 482.064C192.536 490.121 200.848 496.117 209.907 500.015C212.241 509.878 216.872 519.124 223.436 526.946C246.59 554.54 287.875 558.152 315.469 534.998C333.188 520.13 341.6 497.374 338.011 474.752L409.867 414.458C412.717 412.067 413.089 407.817 410.697 404.967C408.306 402.117 404.056 401.745 401.206 404.137L331.487 462.638L264.828 383.197L381.1 285.633L446.914 364.067C447.06 364.499 447.249 364.914 447.48 365.309L439.279 372.19C436.429 374.582 436.057 378.831 438.448 381.681C440.84 384.531 445.089 384.903 447.939 382.511L460.661 371.837C460.76 371.77 460.855 371.695 460.952 371.623C481.097 376.708 502.476 371.961 518.789 358.273C531.071 347.967 538.588 334.068 541.123 319.384C552.656 328.008 556.228 342.276 557.129 347.104C560.027 362.628 553.184 386.749 531.309 403.004C523.386 408.894 517.144 410.451 509.918 412.256C502.506 414.107 494.106 416.204 483.612 423.136C468.128 433.366 456.08 448.792 447.809 468.983C446.398 472.426 448.047 476.361 451.489 477.771C454.933 479.181 458.866 477.535 460.276 474.091C467.501 456.451 477.854 443.09 491.038 434.379C499.607 428.719 506.2 427.072 513.182 425.33C521.088 423.356 529.262 421.315 539.347 413.819C540.555 412.922 541.751 411.976 542.936 410.982C560.606 396.153 575.268 370.851 570.374 344.634C569.046 337.521 563.188 314.612 541.967 304.151C541.138 290.679 536.162 277.349 526.841 266.241C520.277 258.417 511.975 252.251 502.668 248.239ZM202.488 400.352C213.15 391.406 226.969 387.243 240.577 388.464C237.135 393.184 234.395 398.283 232.365 403.616C225.009 404.306 218.02 407.208 212.281 412.023C196.813 425.002 194.789 448.145 207.767 463.612C217.772 475.536 234.228 479.687 248.5 474.428C252.779 478.475 257.5 481.843 262.52 484.523C241.049 497.438 212.701 493.192 196.097 473.404C177.718 451.501 180.585 418.731 202.488 400.352ZM228.667 418.067C226.567 433.404 229.89 449.429 238.888 463.002C231.221 464.008 223.281 461.141 218.087 454.951C209.884 445.175 211.164 430.547 220.94 422.343C223.244 420.411 225.87 418.976 228.667 418.067ZM277.574 490.302C283.423 491.752 289.444 492.385 295.461 492.197C294.131 496.24 291.701 499.879 288.356 502.686C279.237 510.337 265.902 509.736 257.491 501.689C264.624 499.19 271.434 495.407 277.574 490.302ZM306.808 524.676C284.906 543.054 252.135 540.187 233.757 518.285C230.277 514.138 227.485 509.485 225.459 504.524C231.197 505.442 237.044 505.614 242.841 504.996C243.635 506.207 244.493 507.378 245.428 508.492C258.406 523.959 281.55 525.984 297.017 513.005C303.98 507.163 308.439 499.045 309.712 490.184C315.098 488.8 320.35 486.701 325.336 483.898C325.671 499.434 319.03 514.42 306.808 524.676ZM302.264 448.771C297.818 450.598 292.928 451.022 288.142 449.938C282.002 448.546 276.772 444.846 273.414 439.52C271.43 436.373 267.271 435.43 264.123 437.414C260.981 439.395 260.033 443.558 262.017 446.705C267.294 455.076 275.515 460.89 285.164 463.078C294.088 465.1 303.245 463.791 311.192 459.411L320.839 470.908C307.829 479.054 292.176 480.787 278.106 476.48C277.992 476.44 277.876 476.405 277.759 476.372C268.646 473.513 260.213 468.124 253.63 460.279C236.823 440.249 237.795 411.137 254.835 392.248L302.264 448.771L302.264 448.771ZM405.807 223.627C427.71 205.249 460.48 208.116 478.858 230.018C495.056 249.321 494.742 277.059 479.45 295.954C477.309 290.872 474.479 285.996 470.967 281.449C478.396 268.359 477.1 251.622 467.189 239.81C454.211 224.343 431.067 222.318 415.6 235.297C408.63 241.146 404.172 249.258 402.902 258.117C397.516 259.502 392.266 261.6 387.281 264.403C386.945 248.868 393.585 233.883 405.807 223.627ZM496.054 295.393C502.517 305.072 500.794 318.31 491.676 325.961C489.372 327.894 486.747 329.329 483.949 330.238C484.817 323.89 484.754 317.427 483.75 311.065C488.749 306.396 492.851 301.096 496.054 295.393ZM417.152 256.106C418.48 252.063 420.912 248.427 424.26 245.617C434.037 237.414 448.666 238.694 456.868 248.469C462.228 254.858 463.594 263.52 460.943 271.07C448.442 260.7 432.774 255.618 417.152 256.106ZM410.356 299.537C419.584 295.802 430.618 298.217 437.318 306.202C444.018 314.187 444.481 325.474 439.2 333.911L410.356 299.537ZM448.126 344.55C458.94 331.057 459.116 311.218 447.639 297.541C436.162 283.863 416.594 280.592 401.429 288.898L391.776 277.394C413.337 263.894 442.176 267.992 458.983 288.022C475.791 308.052 474.818 337.166 457.779 356.054L448.126 344.55V344.55ZM510.128 347.951C499.265 357.066 485.57 361.187 471.997 359.897C475.458 355.161 478.214 350.041 480.251 344.689C487.608 343.999 494.597 341.097 500.336 336.282C515.803 323.303 517.828 300.159 504.85 284.693C503.915 283.578 502.91 282.529 501.856 281.538C503.471 275.938 504.316 270.149 504.409 264.338C508.943 267.195 513.039 270.751 516.52 274.9C534.898 296.802 532.03 329.573 510.128 347.951Z" fill="black"/>
</g>
</g>
<g id="Group_4">
<g id="Group_5">
<path id="Vector_10" d="M266.145 427.74C268.995 425.349 269.367 421.1 266.975 418.249C264.584 415.399 260.334 415.028 257.484 417.419C254.634 419.811 254.262 424.06 256.654 426.91C259.046 429.76 263.295 430.132 266.145 427.74Z" fill="black"/>
</g>
</g>
<g id="Group_6">
<g id="Group_7">
<path id="Vector_11" d="M429.24 398.407C432.091 396.015 432.462 391.766 430.071 388.916C427.679 386.066 423.43 385.694 420.58 388.085C417.73 390.477 417.358 394.726 419.75 397.576C422.141 400.426 426.39 400.798 429.24 398.407Z" fill="black"/>
</g>
</g>
</g>
</g>
<defs>
<linearGradient id="paint0_linear" x1="0" y1="301" x2="584" y2="301" gradientUnits="userSpaceOnUse">
<stop stop-color="#F95B69"/>
<stop offset="1" stop-color="#FB7262"/>
</linearGradient>
<clipPath id="clip0">
<rect width="602" height="602" fill="white"/>
</clipPath>
<clipPath id="clip1">
<rect width="328.606" height="328.606" fill="white" transform="translate(44 37)"/>
</clipPath>
<clipPath id="clip2">
<rect width="400" height="400" fill="white" transform="translate(91 369.115) rotate(-40)"/>
</clipPath>
</defs>
</svg>
